# xmcd CD database file
#
# Track frame offsets:
#	150
#	13507
#	27202
#	41672
#	56557
#	67897
#	85605
#	102847
#	118832
#	134297
#	147422
#	160230
#
# Disc length: 2342 seconds
#
# Revision: 0
# Processed by: cddbd v1.5.2PL0 Copyright (c) Steve Scherf et al.
# Submitted via: CDex 1.50beta10
#
DISCID=9a09240c
DTITLE=Diego Modena  and Eric Coueffe - Ocarina Forever
DYEAR=1999
DGENRE=New Age
TTITLE0=Forever
TTITLE1=Amalia
TTITLE2=La Criola
TTITLE3=Admitting
TTITLE4=King Lover
TTITLE5=Blue Are The Dreams
TTITLE6=Last Eldorado
TTITLE7=Metisse Reggae
TTITLE8=Amalia ( Reggae )
TTITLE9=Roses For Jiang Ling
TTITLE10=King Lover ( Reggae )
TTITLE11=Bananas Mammbo
EXTD=YEAR: 1999
EXTT0=
EXTT1=
EXTT2=
EXTT3=
EXTT4=
EXTT5=
EXTT6=
EXTT7=
EXTT8=
EXTT9=
EXTT10=
EXTT11=
PLAYORDER=
